HIERARCHY
ROOT hip
{
  OFFSET 0 0 0
  CHANNELS 6 Xposition Yposition Zposition Zrotation Yrotation Xrotation
  JOINT abdomen
  {
    OFFSET 0 20.6881 -0.73152
    CHANNELS 3 Zrotation Xrotation Yrotation
    JOINT chest
    {
      OFFSET 0 11.7043 -0.48768
      CHANNELS 3 Zrotation Xrotation Yrotation
      JOINT neck
      {
        OFFSET 0 22.1894 -2.19456
        CHANNELS 3 Zrotation Xrotation Yrotation
        JOINT head
        {
          OFFSET -0.24384 7.07133 1.2192
          CHANNELS 3 Zrotation Xrotation Yrotation
          JOINT leftEye
          {
            OFFSET 4.14528 8.04674 8.04672
            CHANNELS 3 Zrotation Xrotation Yrotation
            End Site
            {
              OFFSET 1 0 0
            }
          }
          JOINT rightEye
          {
            OFFSET -3.6576 8.04674 8.04672
            CHANNELS 3 Zrotation Xrotation Yrotation
            End Site
            {
              OFFSET 1 0 0
            }
          }
        }
      }
      JOINT rCollar
      {
        OFFSET -2.68224 19.2634 -4.8768
        CHANNELS 3 Zrotation Xrotation Yrotation
        JOINT rShldr
        {
          OFFSET -8.77824 -1.95073 1.46304
          CHANNELS 3 Zrotation Xrotation Yrotation
          JOINT rForeArm
          {
            OFFSET -28.1742 -1.7115 0.48768
            CHANNELS 3 Zrotation Xrotation Yrotation
            JOINT rHand
            {
              OFFSET -22.5879 0.773209 7.07136
              CHANNELS 3 Zrotation Xrotation Yrotation
              JOINT rThumb1
              {
                OFFSET -1.2192 -0.487915 3.41376
                CHANNELS 3 Zrotation Xrotation Yrotation
                JOINT rThumb2
                {
                  OFFSET -3.37035 -0.52449 3.41376
                  CHANNELS 3 Zrotation Xrotation Yrotation
                  End Site
                  {
                    OFFSET -1.78271 -1.18214 1.43049
                  }
                }
              }
              JOINT rIndex1
              {
                OFFSET -7.75947 0.938293 5.60832
                CHANNELS 3 Zrotation Xrotation Yrotation
                JOINT rIndex2
                {
                  OFFSET -2.54057 -0.884171 1.56538
                  CHANNELS 3 Zrotation Xrotation Yrotation
                  End Site
                  {
                    OFFSET -1.62519 -0.234802 1.16502
                  }
                }
              }
              JOINT rMid1
              {
                OFFSET -8.24714 1.18213 3.41376
                CHANNELS 3 Zrotation Xrotation Yrotation
                JOINT rMid2
                {
                  OFFSET -3.10165 -0.590103 1.0647
                  CHANNELS 3 Zrotation Xrotation Yrotation
                  End Site
                  {
                    OFFSET -2.48547 -0.328903 0.83742
                  }
                }
              }
              JOINT rRing1
              {
                OFFSET -8.82822 0.546677 1.51678
                CHANNELS 3 Zrotation Xrotation Yrotation
                JOINT rRing2
                {
                  OFFSET -2.60934 -0.819778 -0.0198488
                  CHANNELS 3 Zrotation Xrotation Yrotation
                  End Site
                  {
                    OFFSET -2.33842 -0.294052 0.168128
                  }
                }
              }
              JOINT rPinky1
              {
                OFFSET -8.27202 -0.0477905 -0.4584
                CHANNELS 3 Zrotation Xrotation Yrotation
                JOINT rPinky2
                {
                  OFFSET -1.82734 -0.647385 -0.700984
                  CHANNELS 3 Zrotation Xrotation Yrotation
                  End Site
                  {
                    OFFSET -1.69225 -0.51767 -0.607171
                  }
                }
              }
            }
          }
        }
      }
      JOINT lCollar
      {
        OFFSET 2.68224 19.2634 -4.8768
        CHANNELS 3 Zrotation Xrotation Yrotation
        JOINT lShldr
        {
          OFFSET 8.77824 -1.95073 1.46304
          CHANNELS 3 Zrotation Xrotation Yrotation
          JOINT lForeArm
          {
            OFFSET 28.1742 -1.7115 0.48768
            CHANNELS 3 Zrotation Xrotation Yrotation
            JOINT lHand
            {
              OFFSET 22.5879 0.773209 7.07136
              CHANNELS 3 Zrotation Xrotation Yrotation
              JOINT lThumb1
              {
                OFFSET 1.2192 -0.487915 3.41376
                CHANNELS 3 Zrotation Xrotation Yrotation
                JOINT lThumb2
                {
                  OFFSET 3.37035 -0.52449 3.41376
                  CHANNELS 3 Zrotation Xrotation Yrotation
                  End Site
                  {
                    OFFSET 1.78271 -1.18214 1.43049
                  }
                }
              }
              JOINT lIndex1
              {
                OFFSET 7.75947 0.938293 5.60832
                CHANNELS 3 Zrotation Xrotation Yrotation
                JOINT lIndex2
                {
                  OFFSET 2.54057 -0.884171 1.56538
                  CHANNELS 3 Zrotation Xrotation Yrotation
                  End Site
                  {
                    OFFSET 1.62519 -0.234802 1.16502
                  }
                }
              }
              JOINT lMid1
              {
                OFFSET 8.24714 1.18213 3.41376
                CHANNELS 3 Zrotation Xrotation Yrotation
                JOINT lMid2
                {
                  OFFSET 3.10165 -0.590103 1.0647
                  CHANNELS 3 Zrotation Xrotation Yrotation
                  End Site
                  {
                    OFFSET 2.48547 -0.328903 0.83742
                  }
                }
              }
              JOINT lRing1
              {
                OFFSET 8.82822 0.546677 1.51678
                CHANNELS 3 Zrotation Xrotation Yrotation
                JOINT lRing2
                {
                  OFFSET 2.60934 -0.819778 -0.0198488
                  CHANNELS 3 Zrotation Xrotation Yrotation
                  End Site
                  {
                    OFFSET 2.33842 -0.294052 0.168128
                  }
                }
              }
              JOINT lPinky1
              {
                OFFSET 8.27202 -0.0477905 -0.4584
                CHANNELS 3 Zrotation Xrotation Yrotation
                JOINT lPinky2
                {
                  OFFSET 1.82734 -0.647385 -0.700984
                  CHANNELS 3 Zrotation Xrotation Yrotation
                  End Site
                  {
                    OFFSET 1.69225 -0.51767 -0.607171
                  }
                }
              }
            }
          }
        }
      }
    }
  }
  JOINT rButtock
  {
    OFFSET -8.77824 4.35084 1.2192
    CHANNELS 3 Zrotation Xrotation Yrotation
    JOINT rThigh
    {
      OFFSET 0 -1.70687 -2.19456
      CHANNELS 3 Zrotation Xrotation Yrotation
      JOINT rShin
      {
        OFFSET 0 -36.8199 0.73152
        CHANNELS 3 Zrotation Xrotation Yrotation
        JOINT rFoot
        {
          OFFSET 0.73152 -45.1104 -5.12064
          CHANNELS 3 Zrotation Xrotation Yrotation
          End Site
          {
            OFFSET -1.1221 -3.69964 12.103
          }
        }
      }
    }
  }
  JOINT lButtock
  {
    OFFSET 8.77824 4.35084 1.2192
    CHANNELS 3 Zrotation Xrotation Yrotation
    JOINT lThigh
    {
      OFFSET 0 -1.70687 -2.19456
      CHANNELS 3 Zrotation Xrotation Yrotation
      JOINT lShin
      {
        OFFSET 0 -36.8199 0.73152
        CHANNELS 3 Zrotation Xrotation Yrotation
        JOINT lFoot
        {
          OFFSET -0.73152 -45.1104 -5.12064
          CHANNELS 3 Zrotation Xrotation Yrotation
          End Site
          {
            OFFSET 1.1221 -3.69964 12.103
          }
        }
      }
    }
  }
}
MOTION
Frames:	7
Frame Time:	0.03333
-47.6676 76.54379999999999 5.3201 146.074849 -39.021943 -168.061444 -6.728692 31.079741 -125.78252 8.808559 -0.467179 137.042818 -13.685847 23.037947 -78.121744 35.967346 0.290738 97.499981 -0.001536 -0.0 0.000641 -0.001536 -0.0 0.000641 -59.833865 -86.721166 -81.634471 -141.33959 -37.805669 -154.124313 -123.501425 -24.654248 -70.026451 6.069777 -13.193035 2.451815 -160.052199 2.213251 88.87764 -76.179002 0.377835 28.916165 -50.387143 40.82595 40.024711 -41.49235 44.779384 26.070992 -39.289946 53.366041 32.877477 10.054337 -20.325282 -1.43762 -0.007907 -0.831589 -0.259744 9.301332 12.721681 1.660776 -152.198105 37.329834 -147.584464 -148.681993 13.670008 -142.253066 152.68913 11.677024 -158.228792 12.138113 -48.03356 -25.796853 176.794616 -22.817283 108.208333 8.729282 4.277896 1.977625 67.03453 37.762304 -34.644083 -2.454874 -11.935472 -22.934779 -2.325032 -3.867863 1.26071 1.25441 17.458643 -4.042336 0.220387 0.638261 -0.123484 129.271281 52.117145 -118.507503 74.840637 72.960813 -92.828043 73.496659 -82.414014 90.592259 8.188437 -17.576302 7.729732 -12.137891 31.143392 -6.952292 0.000453 -0.000173 -0.000582 -22.997673 -18.099418 -115.849371 -51.290255 -16.248315 178.355151 -165.212744 -69.724439 102.090636 -9.6e-05 -0.001394 0.000123 109.26785 -49.768574 -180.0 116.142982 -12.333501 -88.013336 -35.070784 -17.883102 12.097519
-50.77159999999999 78.5928 5.2156 144.052804 -33.396825 -168.154656 -13.572127 35.390665 -0.0 -2.731456 -11.48401 15.836306 6.14061 17.22393 67.652942 -32.063928 1.741163 -48.365692 0.005359 -0.0 -0.000791 -0.000969 -0.0 0.001248 -155.614062 -4.236336 161.991236 -16.137838 0.451418 -3.449018 -8.6732 -8.623615 -115.18119 157.128575 -40.692731 137.056418 -166.744924 -4.418537 89.780168 16.224128 -58.440247 18.369375 -83.732329 42.331104 69.990211 -19.141053 32.922788 7.726934 -169.088532 -33.247646 145.374499 -132.091238 49.710502 120.810504 -145.117864 0.226899 -179.198922 -147.195597 -45.714622 -169.601061 -146.226557 15.470143 -142.747974 1.412208 -2.040192 -2.635372 82.877601 68.300163 -86.000578 -49.086777 -24.744119 -56.703131 -113.361231 74.310705 -144.546159 172.107293 9.966664 -141.044582 175.775619 -13.410596 -89.764716 44.534537 -17.444054 -5.347913 166.821363 -43.973648 -122.062722 -145.781696 -67.206331 -85.099802 160.098363 -4.901003 -142.969355 18.281315 42.136737 -14.888764 72.350293 72.975411 -90.21776 80.939478 83.198719 -89.869127 8.504418 -18.117697 8.030214 -53.830179 84.873141 15.565867 179.986321 75.749276 0.011255 134.743808 46.211787 140.958906 50.34875 -12.755251 -2.35269 -15.512203 50.593514 -75.28518 179.992905 75.750483 0.004854 -135.76457 -24.372587 102.899874 117.669945 -36.376233 -13.075491 -85.345336 33.02957 -2.644872
-53.4566 80.7392 4.757 141.959841 -27.542054 -167.942314 -19.093234 35.170389 10.613569 -3.570687 -11.710645 8.975234 8.054097 22.00013 97.80469 -32.076803 20.531758 -73.429285 0.001244 0.0 0.00223 0.001897 0.0 0.000528 3.62362 -61.421972 -12.828491 -138.799064 -11.930315 -174.902579 -21.045255 42.968197 -95.815215 153.658966 -45.234254 134.429827 114.538354 -50.245508 55.72247 -139.591141 19.867264 94.927525 -10.572799 15.012988 6.865156 -165.490118 -16.724886 110.075083 -0.572165 1.648153 0.322326 -25.192262 49.21642 20.68506 0.000441 0.022604 0.007367 -152.439212 26.630895 167.734255 -81.324243 -51.182204 -79.740682 16.093497 40.689619 7.097303 152.689758 11.67738 -158.229629 106.627705 61.54085 -75.830109 -167.906741 -62.346862 -64.064849 173.313642 3.245016 -141.901571 177.56814 -15.149605 -89.590043 54.159433 -7.926016 -9.171111 13.869736 18.815587 -9.290324 -6.098776 4.55029 -0.013488 153.320366 13.628647 -138.86168 -3.230997 0.191459 -0.372614 70.381188 -72.129746 87.280228 -14.730888 0.857723 4.416961 -1.2429 3.33477 -1.141403 20.063218 -37.786301 20.823828 -179.992279 75.749906 -0.005283 131.810543 42.968906 -121.368477 -5.76558 -47.002965 96.296527 -48.482046 -74.677882 50.099878 -179.992279 75.749906 -0.005283 -133.73 -22.396722 105.389887 105.658789 -30.13229 166.90267 149.475059 -10.106851 -142.016849
-55.305499999999995 82.80340000000001 3.9817 139.768936 -22.591942 -167.369316 -21.861134 33.761967 -49.718717 7.285994 -10.089963 71.925069 -7.735956 13.509013 -19.343611 7.086858 -24.294821 41.372212 -0.002991 0.0 -0.000255 0.002682 -0.0 -0.000599 -147.671206 29.084812 152.475679 165.724818 -13.488752 174.148422 175.87111 -9.091917 63.495455 165.859795 -23.259636 143.136802 93.027917 -51.083761 40.501624 -15.918557 -45.576275 -30.705881 11.073057 -19.65792 -4.818434 170.547168 -46.983354 99.661213 -164.638442 -19.283482 144.733938 11.491434 -24.905271 -1.145495 -0.002123 -0.018621 -0.005053 9.082132 14.186468 1.88328 -152.698983 39.284085 -147.934412 -41.996321 -48.530236 -42.118575 28.501703 57.371923 -30.875303 -57.163087 -15.740758 -40.990533 -10.280783 -63.746794 -71.037257 9.534009 0.48166 2.529191 176.598732 -14.212952 -89.691132 78.736438 8.530642 -25.386865 166.410777 -43.366978 -122.145774 169.829069 -36.013776 -116.99477 166.118915 -24.039688 -145.078102 163.836817 -6.234862 -143.120552 145.100255 -1.520026 178.650158 144.918775 -50.802757 167.343555 86.000953 -50.500595 84.37144 160.066136 55.900165 148.309995 0.000321 -0.000286 -0.000413 -40.640928 -16.170195 107.975775 33.332845 -22.606018 -41.104396 -7.507268 -1.637505 -77.151334 179.995209 75.749534 0.004943 -130.938158 -15.749834 18.582245 69.742633 46.582948 -98.301641 -98.94721 -61.755134 -4.305475
-56.2866 84.8108 3.4503 137.768484 -18.792185 -166.674165 -28.39987 33.492491 -0.0 -0.69649 -13.502962 23.914899 -12.359593 23.684523 -87.696444 35.205465 0.600553 108.668279 -0.001621 0.0 -0.003605 -0.001195 -0.0 0.001786 -33.83672 -85.665812 -55.253887 -135.958937 -24.522002 -165.908248 13.007489 53.989142 -121.715125 165.528104 -24.101686 142.931547 -169.319078 -7.001056 89.922236 18.421184 -60.656587 18.548734 -27.421851 30.638698 20.099701 -169.702734 -20.247006 110.616352 -39.289341 53.365691 32.878696 -153.875988 19.990346 138.628509 -145.120492 0.267555 -179.212849 11.03225 11.147517 -7.669409 -143.940582 8.265125 -140.718992 -161.059376 52.76044 -146.793568 142.974325 39.431923 -147.390661 -83.10163 -47.209179 -96.989848 -12.710539 89.658781 106.878236 176.581452 -3.975543 -142.89809 -96.572317 -51.195521 -43.01859 34.419178 3.6638 8.320299 -19.567229 -35.040673 5.987404 -56.216229 -49.082979 -9.400763 39.289864 53.365717 -32.87833 4.586968 20.81021 -4.371552 145.122401 1.973152 179.749478 -11.464305 21.703487 6.496913 150.94545 32.43199 146.645086 148.614109 13.698083 142.220369 -179.990505 75.749606 -0.006497 121.696817 39.54407 44.884383 -8.834715 34.958138 -87.185263 84.867707 63.724411 -0.014377 0.003198 3.6e-05 0.001599 91.391707 -40.857602 -177.633171 48.60296 -40.816099 -61.058668 -56.324795 12.201584 -13.617476
-57.426500000000004 86.2927 3.2419999999999995 136.477909 -17.05971 -164.964887 -27.067111 29.258702 -89.875556 11.485261 -3.961612 111.805514 9.393551 22.528982 105.051756 -28.239015 28.124999 -79.00459 -0.002999 -0.0 0.003845 0.002709 0.0 0.003747 -29.827588 58.184259 32.233392 -13.241645 8.131082 38.960385 75.947738 83.246428 172.415657 166.641104 -22.235011 143.287237 -169.319978 -7.000939 89.920738 -6.691987 -49.034112 7.389421 -151.354548 -17.15855 121.131853 23.214873 -24.835716 -10.499247 -158.521594 -0.192309 142.144738 179.448614 -49.504447 140.6496 -145.098436 -1.520963 -178.649881 -152.243908 -25.057346 -175.331569 -1.203832 -3.047708 -1.11481 -113.07978 -43.890461 -112.07972 119.904399 60.888774 -123.520529 9.738823 8.939192 -55.97088 -1.066201 9.229034 95.45583 -179.939424 -10.441863 -143.366761 177.747424 -15.324252 -89.56988 40.376431 -21.46494 -2.691845 0.327085 0.529963 -0.186677 161.488108 -13.559142 -110.110962 125.642547 49.838851 -115.272765 172.062483 -31.386274 -143.787039 -0.004389 1.771606 -0.555064 155.569826 -1.327358 -172.007694 126.799653 -26.620889 124.513783 24.887646 -40.504179 26.832912 -0.00347 -0.000832 -0.001735 -43.750203 -12.419487 -12.676125 4.508676 21.614881 32.116499 -14.71216 17.441247 -41.145013 179.983232 75.749258 0.013797 -126.912039 -2.347504 88.237722 24.083565 -26.280152 -49.758628 -79.001037 23.573696 3.729545
-59.2719 87.0813 2.9065 135.903314 -16.518047 -162.623133 -27.470923 27.740124 -86.334105 11.536731 -5.444569 106.406106 3.153373 30.410397 168.814259 10.436497 41.996857 -154.692168 0.000413 0.0 0.000541 0.000802 -0.0 -0.001562 -44.924181 -86.287416 -66.532262 37.025889 11.844796 -13.862437 156.733549 -67.152461 38.282475 168.132959 -19.502517 143.738925 -89.136447 38.426585 50.298833 108.470627 -52.78881 46.67931 -2.686939 4.226412 1.584583 -164.230455 -16.796924 109.948879 -151.474987 17.841172 137.538081 -151.541689 24.806176 136.805899 -145.117026 0.184854 -179.187565 12.052664 35.176747 -5.015381 -18.496018 -31.69251 -17.705615 -159.211022 55.693444 -149.737837 -4.122773 -55.411453 11.082649 -100.938072 57.480894 77.460404 72.533642 -2.533715 -5.25674 -35.752029 -68.718525 -21.216067 0.440858 0.435576 -0.069594 131.178069 -28.940275 -115.622465 158.40218 -30.156016 -122.604318 133.081053 32.002895 -108.431237 167.376711 -28.008266 -145.269015 -3.082158 0.166819 -0.368599 145.119385 0.26776 179.212441 154.33369 -11.171387 177.707466 -1.482404 4.003618 -1.360702 146.988187 10.278715 143.35903 -0.000828 0.000513 -0.000207 -43.336508 -11.742089 -77.828862 -18.788724 16.464594 -179.102721 60.847613 48.60122 -147.965706 -0.001573 0.000513 -0.000786 79.032866 -30.162722 148.995811 17.176067 -8.138056 84.072199 32.05429 16.783526 -163.474867
